# xmcd
#
# Track frame offsets:
#       150
#       15180
#       28525
#       41977
#       56477
#       68232
#       83355
#       97765
#       111065
#       126052
#       142832
#       162875
#       180367
#       195360
#       210882
#       225430
#       239197
#       251230
#       264550
#       278352
#
# Disc length: 3900 seconds
#
# Revision: 1
# Processed by: cddbd v1.5.2PL0 Copyright (c) Steve Scherf et al.
# Submitted via: FreeDbEdit v0.1
#
DISCID=f40f3a14
DTITLE=Charlie Parker - Hot House
DYEAR=1996
DGENRE=Jazz
TTITLE0=Now's the Time
TTITLE1=Koko
TTITLE2=Thriving From a Riff
TTITLE3=Billie's Bounce
TTITLE4=Warming Up a Riff
TTITLE5=Meandering
TTITLE6=Red Cross
TTITLE7=Tiny's Tempo
TTITLE8=Slim's Jam
TTITLE9=Get Happy
TTITLE10=Slam Slam Blues
TTITLE11=Congo Blues
TTITLE12=Salt Peanuts
TTITLE13=Loverman
TTITLE14=Hot House
TTITLE15=Shaw 'Nuff
TTITLE16=Swingermatism
TTITLE17=Hootie Blues
TTITLE18=The Jumpin' Blues
TTITLE19=Sepian Bounce
EXTD=YEAR: 1996
EXTT0=
EXTT1=
EXTT2=
EXTT3=
EXTT4=
EXTT5=
EXTT6=
EXTT7=
EXTT8=
EXTT9=
EXTT10=
EXTT11=
EXTT12=
EXTT13=
EXTT14=
EXTT15=
EXTT16=
EXTT17=
EXTT18=
EXTT19=
PLAYORDER=
